<svg width="48" height="48" viewBox="0 0 48 48" fill="none" xmlns="http://www.w3.org/2000/svg">
<rect width="48" height="48" rx="24" fill="#FEF0C7"/>
<path d="M23.9998 20V24M23.9998 28H24.0098M22.2898 14.86L13.8198 29C13.6451 29.3024 13.5527 29.6453 13.5518 29.9945C13.5508 30.3437 13.6413 30.6871 13.8142 30.9905C13.9871 31.2939 14.2365 31.5467 14.5375 31.7238C14.8385 31.9009 15.1806 31.9961 15.5298 32H32.4698C32.819 31.9961 33.1611 31.9009 33.4621 31.7238C33.7631 31.5467 34.0124 31.2939 34.1854 30.9905C34.3583 30.6871 34.4488 30.3437 34.4478 29.9945C34.4468 29.6453 34.3544 29.3024 34.1798 29L25.7098 14.86C25.5315 14.5661 25.2805 14.3231 24.981 14.1544C24.6814 13.9858 24.3435 13.8972 23.9998 13.8972C23.656 13.8972 23.3181 13.9858 23.0186 14.1544C22.7191 14.3231 22.468 14.5661 22.2898 14.86Z" stroke="#DC6803" stroke-width="2" stroke-linecap="round" stroke-linejoin="round"/>
</svg>
