<svg width="46" height="46" viewBox="0 0 46 46" fill="none" xmlns="http://www.w3.org/2000/svg">
<rect x="3" y="3" width="40" height="40" rx="20" fill="#12B76A"/>
<rect x="3" y="3" width="40" height="40" rx="20" stroke="#039855" stroke-width="6"/>
<g clip-path="url(#clip0_1102_5544)">
<path d="M31.3334 22.2333V23C31.3324 24.797 30.7505 26.5455 29.6745 27.9848C28.5986 29.4241 27.0862 30.477 25.3629 30.9866C23.6396 31.4961 21.7978 31.4349 20.1121 30.8121C18.4265 30.1894 16.9873 29.0384 16.0092 27.5309C15.0311 26.0233 14.5666 24.24 14.6848 22.4469C14.8031 20.6538 15.4978 18.9469 16.6653 17.5809C17.8329 16.2148 19.4107 15.2628 21.1636 14.8668C22.9164 14.4707 24.7503 14.6519 26.3918 15.3833M31.3334 16.3333L23.0001 24.675L20.5001 22.175" stroke="white" stroke-width="1.66667" stroke-linecap="round" stroke-linejoin="round"/>
</g>
<defs>
<clipPath id="clip0_1102_5544">
<rect width="20" height="20" fill="white" transform="translate(13 13)"/>
</clipPath>
</defs>
</svg>
