<svg width="36" height="36" viewBox="0 0 36 36" fill="none" xmlns="http://www.w3.org/2000/svg">
<rect x="2" y="2" width="32" height="32" rx="16" fill="#D1FADF"/>
<rect x="2" y="2" width="32" height="32" rx="16" stroke="#ECFDF3" stroke-width="4"/>
<g clip-path="url(#clip0_1102_5668)">
<path d="M24.6666 17.3866V18C24.6658 19.4376 24.2003 20.8364 23.3395 21.9878C22.4787 23.1393 21.2688 23.9816 19.8902 24.3892C18.5115 24.7968 17.0381 24.7479 15.6896 24.2497C14.341 23.7515 13.1897 22.8307 12.4072 21.6247C11.6248 20.4186 11.2531 18.992 11.3477 17.5575C11.4423 16.123 11.9981 14.7575 12.9321 13.6647C13.8662 12.5718 15.1284 11.8102 16.5307 11.4934C17.933 11.1766 19.4001 11.3215 20.7133 11.9066M24.6666 12.6666L17.9999 19.34L15.9999 17.34" stroke="#039855" stroke-width="1.33333" stroke-linecap="round" stroke-linejoin="round"/>
</g>
<defs>
<clipPath id="clip0_1102_5668">
<rect width="16" height="16" fill="white" transform="translate(10 10)"/>
</clipPath>
</defs>
</svg>
