<svg width="36" height="36" viewBox="0 0 36 36" fill="none" xmlns="http://www.w3.org/2000/svg">
<rect x="2" y="2" width="32" height="32" rx="16" fill="#F79009"/>
<rect x="2" y="2" width="32" height="32" rx="16" stroke="#DC6803" stroke-width="4"/>
<path d="M17.9998 15.3334V18.0001M17.9998 20.6667H18.0064M16.8598 11.9067L11.2131 21.3334C11.0967 21.535 11.0351 21.7636 11.0344 21.9964C11.0338 22.2292 11.0941 22.4581 11.2094 22.6604C11.3247 22.8627 11.4909 23.0312 11.6916 23.1493C11.8922 23.2674 12.1203 23.3308 12.3531 23.3334H23.6464C23.8792 23.3308 24.1073 23.2674 24.308 23.1493C24.5086 23.0312 24.6749 22.8627 24.7902 22.6604C24.9054 22.4581 24.9658 22.2292 24.9651 21.9964C24.9645 21.7636 24.9029 21.535 24.7864 21.3334L19.1398 11.9067C19.0209 11.7108 18.8536 11.5488 18.6539 11.4364C18.4542 11.324 18.2289 11.2649 17.9998 11.2649C17.7706 11.2649 17.5453 11.324 17.3456 11.4364C17.146 11.5488 16.9786 11.7108 16.8598 11.9067Z" stroke="white" stroke-width="1.33333" stroke-linecap="round" stroke-linejoin="round"/>
</svg>
