<svg width="56" height="56" viewBox="0 0 56 56" fill="none" xmlns="http://www.w3.org/2000/svg">
<rect width="56" height="56" rx="28" fill="#D1FADF"/>
<path d="M39.6666 26.9267V28C39.6652 30.5158 38.8505 32.9638 37.3441 34.9788C35.8378 36.9938 33.7204 38.4679 31.3078 39.1812C28.8953 39.8945 26.3167 39.8089 23.9568 38.937C21.5969 38.0652 19.582 36.4538 18.2127 34.3433C16.8434 32.2327 16.193 29.7361 16.3585 27.2257C16.5241 24.7153 17.4967 22.3257 19.1312 20.4133C20.7658 18.5008 22.9748 17.168 25.4288 16.6135C27.8828 16.0591 30.4502 16.3127 32.7483 17.3367M39.6666 18.6667L27.9999 30.345L24.4999 26.845" stroke="#039855" stroke-width="2.33333" stroke-linecap="round" stroke-linejoin="round"/>
</svg>
