<svg width="66" height="66" viewBox="0 0 66 66" fill="none" xmlns="http://www.w3.org/2000/svg">
<rect x="5" y="5" width="56" height="56" rx="28" fill="#D1FADF"/>
<rect x="5" y="5" width="56" height="56" rx="28" stroke="#ECFDF3" stroke-width="10"/>
<path d="M44.6666 31.9267V33C44.6652 35.5158 43.8505 37.9638 42.3441 39.9788C40.8378 41.9938 38.7204 43.4679 36.3078 44.1812C33.8953 44.8945 31.3167 44.8089 28.9568 43.937C26.5969 43.0652 24.582 41.4538 23.2127 39.3433C21.8434 37.2327 21.193 34.7361 21.3585 32.2257C21.5241 29.7153 22.4967 27.3257 24.1312 25.4133C25.7658 23.5008 27.9748 22.168 30.4288 21.6135C32.8828 21.0591 35.4502 21.3127 37.7483 22.3367M44.6666 23.6667L32.9999 35.345L29.4999 31.845" stroke="#039855" stroke-width="2.33333" stroke-linecap="round" stroke-linejoin="round"/>
</svg>
