<svg width="66" height="66" viewBox="0 0 66 66" fill="none" xmlns="http://www.w3.org/2000/svg">
<rect x="5" y="5" width="56" height="56" rx="28" fill="#F79009"/>
<rect x="5" y="5" width="56" height="56" rx="28" stroke="#DC6803" stroke-width="10"/>
<path d="M32.9997 28.3334V33M32.9997 37.6667H33.0113M31.0047 22.3367L21.123 38.8334C20.9193 39.1862 20.8115 39.5862 20.8103 39.9936C20.8092 40.4011 20.9147 40.8017 21.1165 41.1556C21.3182 41.5096 21.6092 41.8046 21.9603 42.0112C22.3115 42.2178 22.7106 42.3289 23.118 42.3334H42.8813C43.2887 42.3289 43.6879 42.2178 44.039 42.0112C44.3901 41.8046 44.6811 41.5096 44.8828 41.1556C45.0846 40.8017 45.1901 40.4011 45.189 39.9936C45.1879 39.5862 45.0801 39.1862 44.8763 38.8334L34.9947 22.3367C34.7867 21.9938 34.4938 21.7103 34.1444 21.5136C33.7949 21.3169 33.4007 21.2135 32.9997 21.2135C32.5986 21.2135 32.2044 21.3169 31.8549 21.5136C31.5055 21.7103 31.2126 21.9938 31.0047 22.3367Z" stroke="white" stroke-width="2.33333" stroke-linecap="round" stroke-linejoin="round"/>
</svg>
