<svg width="26" height="26" viewBox="0 0 26 26" fill="none" xmlns="http://www.w3.org/2000/svg">
<rect x="1" y="1" width="24" height="24" rx="12" fill="#F79009"/>
<rect x="1" y="1" width="24" height="24" rx="12" stroke="#DC6803" stroke-width="2"/>
<path d="M12.9999 11V13M12.9999 15H13.0049M12.1449 8.42998L7.90989 15.5C7.82257 15.6512 7.77637 15.8226 7.77588 15.9972C7.77539 16.1719 7.82063 16.3435 7.9071 16.4952C7.99357 16.6469 8.11825 16.7734 8.26874 16.8619C8.41923 16.9505 8.59029 16.9981 8.76489 17H17.2349C17.4095 16.9981 17.5805 16.9505 17.731 16.8619C17.8815 16.7734 18.0062 16.6469 18.0927 16.4952C18.1791 16.3435 18.2244 16.1719 18.2239 15.9972C18.2234 15.8226 18.1772 15.6512 18.0899 15.5L13.8549 8.42998C13.7658 8.28303 13.6402 8.16154 13.4905 8.07722C13.3407 7.9929 13.1718 7.94861 12.9999 7.94861C12.828 7.94861 12.6591 7.9929 12.5093 8.07722C12.3595 8.16154 12.234 8.28303 12.1449 8.42998Z" stroke="white" stroke-linecap="round" stroke-linejoin="round"/>
</svg>
