<svg width="24" height="24" viewBox="0 0 24 24" fill="none" xmlns="http://www.w3.org/2000/svg">
<path fill-rule="evenodd" clip-rule="evenodd" d="M24 12C24 18.6274 18.6274 24 12 24C5.37258 24 0 18.6274 0 12C0 5.37258 5.37258 0 12 0C18.6274 0 24 5.37258 24 12ZM18.2459 10.2457C19.2143 10.2457 20.0002 11.0316 20.0002 12C20.0002 12.7158 19.5652 13.3334 18.9897 13.6141C19.0178 13.7825 19.0318 13.9509 19.0318 14.1334C19.0318 16.8281 15.902 19.0035 12.0283 19.0035C8.15464 19.0035 5.02481 16.8281 5.02481 14.1334C5.02481 13.9509 5.03885 13.7685 5.06692 13.6C4.44937 13.3193 4.02832 12.7158 4.02832 12C4.02832 11.0316 4.81429 10.2457 5.78271 10.2457C6.24586 10.2457 6.68095 10.4421 6.98972 10.7369C8.19674 9.85267 9.86692 9.3053 11.7336 9.24916L12.6178 5.0667C12.6459 4.98249 12.688 4.91232 12.7581 4.87021C12.8283 4.82811 12.9125 4.81407 12.9967 4.82811L15.902 5.44565C16.0985 5.0246 16.5196 4.7439 17.0108 4.7439C17.6985 4.7439 18.2599 5.3053 18.2599 5.99302C18.2599 6.68074 17.6985 7.24214 17.0108 7.24214C16.3371 7.24214 15.7897 6.70881 15.7617 6.04916L13.1652 5.50179L12.3652 9.24916C14.1897 9.31934 15.8459 9.88074 17.0388 10.7369C17.3476 10.4281 17.7687 10.2457 18.2459 10.2457ZM9.24937 12C8.56165 12 8.00025 12.5614 8.00025 13.2492C8.00025 13.9369 8.56165 14.4983 9.24937 14.4983C9.93709 14.4983 10.4985 13.9369 10.4985 13.2492C10.4985 12.5614 9.93709 12 9.24937 12ZM12.0143 17.4597C12.4915 17.4597 14.1195 17.4035 14.9757 16.5474C15.102 16.4211 15.102 16.2246 15.0038 16.0842C14.8774 15.9579 14.6669 15.9579 14.5406 16.0842C13.9932 16.6176 12.8564 16.8141 12.0283 16.8141C11.2003 16.8141 10.0494 16.6176 9.51604 16.0842C9.38972 15.9579 9.1792 15.9579 9.05288 16.0842C8.92657 16.2106 8.92657 16.4211 9.05288 16.5474C9.89499 17.3895 11.5371 17.4597 12.0143 17.4597ZM13.502 13.2492C13.502 13.9369 14.0634 14.4983 14.7511 14.4983C15.4388 14.4983 16.0002 13.9369 16.0002 13.2492C16.0002 12.5614 15.4388 12 14.7511 12C14.0634 12 13.502 12.5614 13.502 13.2492Z" fill="white"/>
</svg>
